<?xml version="1.0" encoding="UTF-8"?>
<svg id="Layer_2" data-name="Layer 2" xmlns="http://www.w3.org/2000/svg" viewBox="0 0 175.93 48.12">
  <defs>
    <style>
      .cls-1 {
        fill: #f5c400;
      }

      .cls-1, .cls-2 {
        stroke-width: 0px;
      }

      .cls-2 {
        fill: #0051ba;
      }
    </style>
  </defs>
  <g id="for_review" data-name="for review">
    <g>
      <path class="cls-2" d="m27.3,2.56h0c0-1.41-1.11-2.56-2.48-2.56h-14.21C4.75,0,0,4.88,0,10.88v17.3c0,3.69,2.04,6.9,5.02,8.46.58.31,1.2.55,1.85.73.36.1.75.18,1.14.23.38.06.78.08,1.19.08h.87l-3.53,8.41c-.56,1.32.91,2.59,2.07,1.78l14.96-10.19h13.69c.41,0,.8-.02,1.19-.08.4-.06.78-.13,1.14-.23.65-.18,1.27-.42,1.85-.73,2.98-1.56,5.02-4.77,5.02-8.46v-3.98c0-1.43-1.12-2.59-2.51-2.59h0c-1.39,0-2.51,1.16-2.51,2.59v3.99c0,2.38-1.87,4.31-4.18,4.31h-11.64l-4.91,2.67-.4.21-4,2.17-1.9,1.04,1.53-4.42.37-1.06.21-.61h-7.33c-2.31,0-4.18-1.93-4.18-4.31V10.88c0-3.14,2.51-5.71,5.59-5.71l14.22-.07c1.36,0,2.47-1.15,2.47-2.56Z"/>
      <polygon class="cls-1" points="42.18 10.5 38.57 13.86 39.94 21.52 38.41 20.76 32.73 17.91 25.52 21.52 26.9 13.86 21.23 8.6 21.06 8.44 29.13 7.32 30.72 4.23 32.73 .36 34.77 4.29 36.34 7.32 40.9 7.96 44.4 8.44 42.18 10.5"/>
      <path class="cls-2" d="m55.51,2.41h6.39v21.2c0,1.35.4,2.51,2.22,2.51,1.67,0,2.18-1.5,2.18-2.7V2.41h6.39v20.34c0,4.76-2.07,8.43-8.61,8.43-5.41,0-8.57-2.66-8.57-8.43V2.41Z"/>
      <path class="cls-2" d="m84.53,15.75c-.07-.71-.07-1.42-.33-1.99-.22-.52-.65-.9-1.6-.9-1.13,0-1.93.52-1.93,1.76,0,1.12.91,1.69,1.78,2.14,3.74,1.76,7.77,2.77,7.77,7.75,0,4.68-3.45,6.67-7.7,6.67-4.58,0-7.77-2.02-7.56-7.08h5.52c-.04.71.04,1.5.36,2.13.29.6.84,1.01,1.71,1.01,1.24,0,2.07-.64,2.07-1.99,0-.64-.29-1.24-.76-1.61-2.33-1.27-5.56-2.17-7.38-4.31-.98-1.16-1.45-2.4-1.45-3.93,0-4.53,3.49-6.48,7.52-6.48s7.59,2.17,7.38,6.82h-5.41Z"/>
      <path class="cls-2" d="m98.19,20.99v3.67c0,1.16.51,2.13,1.78,2.21,2.14.11,1.93-1.87,2.03-3.63h5.74c.29,5.39-2.54,7.87-7.56,7.94-4.14.04-7.77-1.72-7.77-6.52v-8.54c0-5.39,3.31-7.15,7.77-7.19,4.03-.04,7.77,1.54,7.77,6.07v5.99h-9.77Zm4-3.93v-2.06c0-.75-.47-2.14-1.96-2.14-1.63,0-2.03,1.35-2.03,2.81v1.39h4Z"/>
      <path class="cls-2" d="m116.46,9.53v3.18h.07c.65-2.25,2.07-3.78,4.47-3.78v6.74c-.58-.11-1.16-.15-1.74-.15-1.63,0-2.29.34-2.4,2.06v12.92h-5.78V9.53h5.38Z"/>
      <path class="cls-1" d="m137.61,32.73c-.87,0-1.83-.18-2.88-.54-1.05-.36-2.13-.8-3.24-1.32-1.11-.52-2.21-1.02-3.3-1.5-.6.68-1.23,1.2-1.88,1.58-.65.37-1.37.56-2.14.56s-1.43-.18-1.98-.54c-.54-.36-.95-.79-1.23-1.29-.28-.49-.42-.94-.42-1.32,0-.44.2-.81.6-1.12.4-.31,1.08-.47,2.05-.47.63,0,1.32.07,2.08.22.76.15,1.55.33,2.37.54.58-1.01,1.12-2.2,1.61-3.55.49-1.35.98-2.79,1.47-4.31.48-1.52.97-3.04,1.45-4.57-1.11-.36-1.99-.89-2.63-1.59-.64-.7-.96-1.46-.96-2.28,0-.44.09-.87.27-1.3.18-.44.44-.8.78-1.11.34-.3.74-.45,1.2-.45-.17.24-.29.59-.36,1.05-.07.46-.11.86-.11,1.2,0,.92.19,1.69.58,2.3.39.62.88,1.09,1.49,1.43.48-1.45.98-2.82,1.5-4.11.52-1.29,1.09-2.45,1.72-3.46.63-1.02,1.32-1.81,2.07-2.39.75-.58,1.58-.87,2.5-.87.48,0,1,.11,1.54.33.54.22,1.01.59,1.4,1.12.39.53.58,1.28.58,2.25,0,.82-.17,1.71-.51,2.66-.34.96-.86,1.86-1.56,2.72-.7.86-1.59,1.56-2.68,2.1-1.09.54-2.37.83-3.84.85h-.69c-.48,1.47-1,2.97-1.54,4.49s-1.12,2.97-1.72,4.33c-.6,1.37-1.26,2.58-1.96,3.64,1.11.34,2.23.68,3.37,1.03,1.14.35,2.23.64,3.3.87,1.06.23,2.04.34,2.94.34.51,0,.97-.05,1.38-.15.41-.1.81-.24,1.2-.43-.39,1.11-.9,1.9-1.54,2.37-.64.47-1.4.71-2.27.71Zm-13.59-2.28c.53,0,1.03-.15,1.5-.44.47-.29.9-.7,1.29-1.23-.75-.31-1.48-.57-2.19-.78-.71-.21-1.36-.31-1.94-.31-.46,0-.77.06-.94.18-.17.12-.25.29-.25.51,0,.41.24.86.71,1.34s1.08.72,1.83.72Zm10.66-15.62c1.09,0,2.07-.31,2.95-.92.88-.62,1.63-1.39,2.25-2.32.62-.93,1.09-1.88,1.41-2.85.33-.97.49-1.81.49-2.54s-.13-1.18-.4-1.43c-.27-.25-.57-.38-.91-.38-.75,0-1.45.48-2.1,1.45s-1.27,2.24-1.87,3.82c-.59,1.58-1.2,3.3-1.83,5.17Z"/>
      <path class="cls-1" d="m145.81,30.52c-.94,0-1.64-.3-2.1-.89-.46-.59-.69-1.31-.69-2.16,0-.56.1-1.26.31-2.1.2-.85.48-1.73.82-2.66.34-.93.73-1.81,1.18-2.63.45-.82.92-1.49,1.43-2.01.51-.52,1-.78,1.49-.78.22,0,.4.07.56.2.16.13.24.33.24.6,0,.29-.19.76-.56,1.41-.37.65-.82,1.4-1.32,2.25-.51.85-.95,1.73-1.32,2.66-.37.93-.56,1.82-.56,2.66s.14,1.45.43,1.74.74.43,1.34.43c.82,0,1.7-.41,2.63-1.23.93-.82,1.91-2.26,2.95-4.31l.33.36c-.7,2.08-1.71,3.67-3.03,4.78-1.32,1.11-2.69,1.67-4.11,1.67Zm4.35-16.6c-.39,0-.73-.1-1.03-.29-.3-.19-.45-.49-.45-.91,0-.51.3-.95.89-1.32.59-.37,1.18-.56,1.76-.56.36,0,.65.09.87.25s.33.46.33.87c0,.46-.25.9-.74,1.32-.5.42-1.03.63-1.61.63Z"/>
      <path class="cls-1" d="m155.74,31.43c-1.14,0-2.04-.25-2.7-.74-.66-.5-1.14-1.11-1.41-1.83-.28-.72-.42-1.45-.42-2.17s.1-1.28.29-1.67c.19-.39.43-.68.71-.87.28-.19.54-.34.8-.44.25-.1.43-.19.53-.29.72-.8,1.39-1.63,1.99-2.5.6-.87,1.14-1.79,1.59-2.75v-.43c0-.89.15-1.53.45-1.9.3-.37.62-.56.96-.56.19,0,.34.05.43.15.1.1.15.21.15.33s-.04.31-.11.58c-.07.27-.11.6-.11,1.02,0,.8.16,1.66.47,2.59.31.93.63,1.91.94,2.94.31,1.03.47,2.1.47,3.21,0,.31-.02.62-.05.92-.04.3-.09.59-.16.85.85-.14,1.64-.53,2.39-1.14.75-.62,1.47-1.6,2.17-2.95l.33.36c-.46,1.33-1.15,2.34-2.07,3.03-.92.69-1.92,1.12-3.01,1.29-.39,1.04-1,1.8-1.83,2.28-.83.48-1.77.72-2.81.72Zm.07-1.27c.29,0,.68-.1,1.16-.29.48-.19.86-.69,1.12-1.49-1.01-.19-1.92-.59-2.7-1.2-.79-.6-1.37-1.21-1.76-1.81-.53.02-.8.45-.8,1.27,0,.87.26,1.67.78,2.41.52.74,1.25,1.11,2.19,1.11Zm2.46-2.36c.05-.24.08-.49.11-.76.02-.27.04-.58.04-.94,0-1.14-.14-2.27-.42-3.39-.28-1.12-.51-2.18-.71-3.17-.56.92-1.14,1.79-1.76,2.63-.62.83-1.2,1.53-1.76,2.08.36.77.92,1.5,1.69,2.17.76.68,1.7,1.14,2.81,1.38Z"/>
      <path class="cls-1" d="m167.52,31.25c-1.04,0-1.84-.3-2.39-.91-.56-.6-.83-1.5-.83-2.68,0-1.06.2-2.37.6-3.93.4-1.56.9-3.16,1.5-4.8-.24-.05-.47-.09-.69-.13-.22-.04-.42-.09-.62-.16v-.65c.19.02.42.05.69.07.27.02.57.05.91.07.51-1.3,1.05-2.57,1.63-3.79.58-1.22,1.15-2.31,1.72-3.26.57-.95,1.11-1.72,1.63-2.28.52-.57.96-.85,1.32-.85.19,0,.37.07.53.2.16.13.24.33.24.6,0,.41-.25,1.08-.76,2.01-.51.93-1.14,2.04-1.89,3.32-.75,1.28-1.47,2.67-2.17,4.17h1.34c.8,0,1.64-.01,2.52-.04.88-.02,1.77-.08,2.66-.18v.65c-1.33.15-2.52.25-3.57.33s-1.99.11-2.81.11h-.54c-.56,1.28-1.03,2.6-1.41,3.95-.39,1.35-.58,2.67-.58,3.95,0,1.04.16,1.78.47,2.23.31.45.83.67,1.56.67,1.26,0,2.49-.56,3.7-1.67,1.21-1.11,2.27-2.62,3.19-4.53l.47.36c-.58,1.35-1.31,2.57-2.19,3.66-.88,1.09-1.85,1.94-2.92,2.57-1.06.63-2.16.94-3.3.94Z"/>
    </g>
  </g>
</svg>